<?xml version="1.0" encoding="utf-8" standalone="no"?>
<!DOCTYPE svg PUBLIC "-//W3C//DTD SVG 1.1//EN"
  "http://www.w3.org/Graphics/SVG/1.1/DTD/svg11.dtd">
<svg xmlns:xlink="http://www.w3.org/1999/xlink" width="576pt" height="576pt" viewBox="0 0 576 576" xmlns="http://www.w3.org/2000/svg" version="1.1">
 <metadata>
  <rdf:RDF xmlns:dc="http://purl.org/dc/elements/1.1/" xmlns:cc="http://creativecommons.org/ns#" xmlns:rdf="http://www.w3.org/1999/02/22-rdf-syntax-ns#">
   <cc:Work>
    <dc:type rdf:resource="http://purl.org/dc/dcmitype/StillImage"/>
    <dc:date>2024-09-30T16:35:04.266987</dc:date>
    <dc:format>image/svg+xml</dc:format>
    <dc:creator>
     <cc:Agent>
      <dc:title>Matplotlib v3.9.2, https://matplotlib.org/</dc:title>
     </cc:Agent>
    </dc:creator>
   </cc:Work>
  </rdf:RDF>
 </metadata>
 <defs>
  <style type="text/css">*{stroke-linejoin: round; stroke-linecap: butt}</style>
 </defs>
 <g id="figure_1">
  <g id="patch_1">
   <path d="M 0 576 
L 576 576 
L 576 0 
L 0 0 
z
" style="fill: #ffffff"/>
  </g>
  <g id="axes_1">
   <g id="patch_2">
    <path d="M 203.539975 341.689207 
Q 249.086067 407.510657 293.995977 472.41272 
" clip-path="url(#p6ea00c9720)" style="fill: none; stroke: #808080; stroke-linecap: round"/>
    <path d="M 293.36455 467.985385 
L 293.995977 472.41272 
L 290.075252 470.261461 
z
" clip-path="url(#p6ea00c9720)" style="fill: #808080; stroke: #808080; stroke-linecap: round"/>
   </g>
   <g id="patch_3">
    <path d="M 203.646933 341.598702 
Q 249.083998 390.846618 293.762926 439.272811 
" clip-path="url(#p6ea00c9720)" style="fill: none; stroke: #808080; stroke-linecap: round"/>
    <path d="M 292.520475 434.976729 
L 293.762926 439.272811 
L 289.580591 437.689123 
z
" clip-path="url(#p6ea00c9720)" style="fill: #808080; stroke: #808080; stroke-linecap: round"/>
   </g>
   <g id="patch_4">
    <path d="M 203.776408 341.447181 
Q 249.082255 374.184309 293.48189 406.266626 
" clip-path="url(#p6ea00c9720)" style="fill: none; stroke: #808080; stroke-linecap: round"/>
    <path d="M 291.411087 402.302817 
L 293.48189 406.266626 
L 289.068361 405.544983 
z
" clip-path="url(#p6ea00c9720)" style="fill: #808080; stroke: #808080; stroke-linecap: round"/>
   </g>
   <g id="patch_5">
    <path d="M 296.182323 440.652961 
Q 341.315364 432.499896 385.348179 424.545581 
" clip-path="url(#p6ea00c9720)" style="fill: none; stroke: #808080; stroke-linecap: round"/>
    <path d="M 381.056353 423.288508 
L 385.348179 424.545581 
L 381.767425 427.224797 
z
" clip-path="url(#p6ea00c9720)" style="fill: #808080; stroke: #808080; stroke-linecap: round"/>
   </g>
   <g id="patch_6">
    <path d="M 296.080995 440.352971 
Q 341.317122 415.837908 385.570282 391.85555 
" clip-path="url(#p6ea00c9720)" style="fill: none; stroke: #808080; stroke-linecap: round"/>
    <path d="M 381.100579 392.003028 
L 385.570282 391.85555 
L 383.006442 395.5198 
z
" clip-path="url(#p6ea00c9720)" style="fill: #808080; stroke: #808080; stroke-linecap: round"/>
   </g>
   <g id="patch_7">
    <path d="M 296.080995 407.030657 
Q 341.317122 382.515594 385.570282 358.533236 
" clip-path="url(#p6ea00c9720)" style="fill: none; stroke: #808080; stroke-linecap: round"/>
    <path d="M 381.100579 358.680714 
L 385.570282 358.533236 
L 383.006442 362.197486 
z
" clip-path="url(#p6ea00c9720)" style="fill: #808080; stroke: #808080; stroke-linecap: round"/>
   </g>
   <g id="patch_8">
    <path d="M 295.940261 406.839477 
Q 341.315881 365.855045 385.861806 325.620017 
" clip-path="url(#p6ea00c9720)" style="fill: none; stroke: #808080; stroke-linecap: round"/>
    <path d="M 381.552823 326.816956 
L 385.861806 325.620017 
L 384.233968 329.785367 
z
" clip-path="url(#p6ea00c9720)" style="fill: #808080; stroke: #808080; stroke-linecap: round"/>
   </g>
   <g id="patch_9">
    <path d="M 388.053449 191.699643 
Q 433.549205 249.22976 478.351453 305.882925 
" clip-path="url(#p6ea00c9720)" style="fill: none; stroke: #808080; stroke-linecap: round"/>
    <path d="M 477.439022 301.504858 
L 478.351453 305.882925 
L 474.301541 303.986029 
z
" clip-path="url(#p6ea00c9720)" style="fill: #808080; stroke: #808080; stroke-linecap: round"/>
   </g>
   <g id="patch_10">
    <path d="M 388.413728 257.735138 
Q 433.546769 265.888203 477.579584 273.842518 
" clip-path="url(#p6ea00c9720)" style="fill: none; stroke: #808080; stroke-linecap: round"/>
    <path d="M 473.99883 271.163302 
L 477.579584 273.842518 
L 473.287758 275.099591 
z
" clip-path="url(#p6ea00c9720)" style="fill: #808080; stroke: #808080; stroke-linecap: round"/>
   </g>
   <g id="patch_11">
    <path d="M 388.171666 158.259366 
Q 433.547286 199.243798 478.093211 239.478826 
" clip-path="url(#p6ea00c9720)" style="fill: none; stroke: #808080; stroke-linecap: round"/>
    <path d="M 476.465373 235.313476 
L 478.093211 239.478826 
L 473.784227 238.281887 
z
" clip-path="url(#p6ea00c9720)" style="fill: #808080; stroke: #808080; stroke-linecap: round"/>
   </g>
   <g id="patch_12">
    <path d="M 388.413728 291.057452 
Q 433.546769 299.210517 477.579584 307.164832 
" clip-path="url(#p6ea00c9720)" style="fill: none; stroke: #808080; stroke-linecap: round"/>
    <path d="M 473.99883 304.485616 
L 477.579584 307.164832 
L 473.287758 308.421906 
z
" clip-path="url(#p6ea00c9720)" style="fill: #808080; stroke: #808080; stroke-linecap: round"/>
   </g>
   <g id="patch_13">
    <path d="M 295.822044 208.3608 
Q 341.3178 265.890917 386.120048 322.544082 
" clip-path="url(#p6ea00c9720)" style="fill: none; stroke: #808080; stroke-linecap: round"/>
    <path d="M 385.207617 318.166015 
L 386.120048 322.544082 
L 382.070136 320.647186 
z
" clip-path="url(#p6ea00c9720)" style="fill: #808080; stroke: #808080; stroke-linecap: round"/>
   </g>
   <g id="patch_14">
    <path d="M 296.182323 207.396763 
Q 341.315364 199.243697 385.348179 191.289383 
" clip-path="url(#p6ea00c9720)" style="fill: none; stroke: #808080; stroke-linecap: round"/>
    <path d="M 381.056353 190.032309 
L 385.348179 191.289383 
L 381.767425 193.968599 
z
" clip-path="url(#p6ea00c9720)" style="fill: #808080; stroke: #808080; stroke-linecap: round"/>
   </g>
   <g id="patch_15">
    <path d="M 388.413728 324.379766 
Q 433.259945 332.481018 477.005936 340.38352 
" clip-path="url(#p6ea00c9720)" style="fill: none; stroke: #808080; stroke-linecap: round"/>
    <path d="M 473.425182 337.704303 
L 477.005936 340.38352 
L 472.71411 341.640593 
z
" clip-path="url(#p6ea00c9720)" style="fill: #808080; stroke: #808080; stroke-linecap: round"/>
   </g>
   <g id="patch_16">
    <path d="M 388.3124 224.712814 
Q 433.548527 249.227877 477.801687 273.210235 
" clip-path="url(#p6ea00c9720)" style="fill: none; stroke: #808080; stroke-linecap: round"/>
    <path d="M 475.237847 269.545985 
L 477.801687 273.210235 
L 473.331984 273.062757 
z
" clip-path="url(#p6ea00c9720)" style="fill: #808080; stroke: #808080; stroke-linecap: round"/>
   </g>
   <g id="patch_17">
    <path d="M 295.940261 174.920523 
Q 341.315881 215.904955 385.861806 256.139983 
" clip-path="url(#p6ea00c9720)" style="fill: none; stroke: #808080; stroke-linecap: round"/>
    <path d="M 384.233968 251.974633 
L 385.861806 256.139983 
L 381.552823 254.943044 
z
" clip-path="url(#p6ea00c9720)" style="fill: #808080; stroke: #808080; stroke-linecap: round"/>
   </g>
   <g id="patch_18">
    <path d="M 296.182323 174.074449 
Q 341.315364 165.921383 385.348179 157.967068 
" clip-path="url(#p6ea00c9720)" style="fill: none; stroke: #808080; stroke-linecap: round"/>
    <path d="M 381.056353 156.709995 
L 385.348179 157.967068 
L 381.767425 160.646285 
z
" clip-path="url(#p6ea00c9720)" style="fill: #808080; stroke: #808080; stroke-linecap: round"/>
   </g>
   <g id="patch_19">
    <path d="M 203.776408 308.124867 
Q 249.082255 340.861995 293.48189 372.944312 
" clip-path="url(#p6ea00c9720)" style="fill: none; stroke: #808080; stroke-linecap: round"/>
    <path d="M 291.411087 368.980503 
L 293.48189 372.944312 
L 289.068361 372.222669 
z
" clip-path="url(#p6ea00c9720)" style="fill: #808080; stroke: #808080; stroke-linecap: round"/>
   </g>
   <g id="patch_20">
    <path d="M 203.911513 307.881824 
Q 249.086332 324.203049 293.209639 340.144373 
" clip-path="url(#p6ea00c9720)" style="fill: none; stroke: #808080; stroke-linecap: round"/>
    <path d="M 290.127226 336.904199 
L 293.209639 340.144373 
L 288.768052 340.666199 
z
" clip-path="url(#p6ea00c9720)" style="fill: #808080; stroke: #808080; stroke-linecap: round"/>
   </g>
   <g id="patch_21">
    <path d="M 203.967806 307.541157 
Q 249.084142 307.541157 293.082443 307.541157 
" clip-path="url(#p6ea00c9720)" style="fill: none; stroke: #808080; stroke-linecap: round"/>
    <path d="M 289.082443 305.541157 
L 293.082443 307.541157 
L 289.082443 309.541157 
z
" clip-path="url(#p6ea00c9720)" style="fill: #808080; stroke: #808080; stroke-linecap: round"/>
   </g>
   <g id="patch_22">
    <path d="M 295.940261 373.517163 
Q 341.315881 332.532731 385.861806 292.297703 
" clip-path="url(#p6ea00c9720)" style="fill: none; stroke: #808080; stroke-linecap: round"/>
    <path d="M 381.552823 293.494642 
L 385.861806 292.297703 
L 384.233968 296.463053 
z
" clip-path="url(#p6ea00c9720)" style="fill: #808080; stroke: #808080; stroke-linecap: round"/>
   </g>
   <g id="patch_23">
    <path d="M 295.822044 373.3992 
Q 341.3178 315.869083 386.120048 259.215918 
" clip-path="url(#p6ea00c9720)" style="fill: none; stroke: #808080; stroke-linecap: round"/>
    <path d="M 382.070136 261.112814 
L 386.120048 259.215918 
L 385.207617 263.593985 
z
" clip-path="url(#p6ea00c9720)" style="fill: #808080; stroke: #808080; stroke-linecap: round"/>
   </g>
   <g id="patch_24">
    <path d="M 295.940261 341.532094 
Q 341.315881 382.516525 385.861806 422.751554 
" clip-path="url(#p6ea00c9720)" style="fill: none; stroke: #808080; stroke-linecap: round"/>
    <path d="M 384.233968 418.586203 
L 385.861806 422.751554 
L 381.552823 421.554614 
z
" clip-path="url(#p6ea00c9720)" style="fill: #808080; stroke: #808080; stroke-linecap: round"/>
   </g>
   <g id="patch_25">
    <path d="M 295.822044 340.076886 
Q 341.3178 282.546769 386.120048 225.893604 
" clip-path="url(#p6ea00c9720)" style="fill: none; stroke: #808080; stroke-linecap: round"/>
    <path d="M 382.070136 227.7905 
L 386.120048 225.893604 
L 385.207617 230.271671 
z
" clip-path="url(#p6ea00c9720)" style="fill: #808080; stroke: #808080; stroke-linecap: round"/>
   </g>
   <g id="patch_26">
    <path d="M 296.080995 308.018599 
Q 341.317122 332.533662 385.570282 356.51602 
" clip-path="url(#p6ea00c9720)" style="fill: none; stroke: #808080; stroke-linecap: round"/>
    <path d="M 383.006442 352.85177 
L 385.570282 356.51602 
L 381.100579 356.368542 
z
" clip-path="url(#p6ea00c9720)" style="fill: #808080; stroke: #808080; stroke-linecap: round"/>
   </g>
   <g id="patch_27">
    <path d="M 295.822044 306.754572 
Q 341.3178 249.224455 386.120048 192.57129 
" clip-path="url(#p6ea00c9720)" style="fill: none; stroke: #808080; stroke-linecap: round"/>
    <path d="M 382.070136 194.468186 
L 386.120048 192.57129 
L 385.207617 196.949357 
z
" clip-path="url(#p6ea00c9720)" style="fill: #808080; stroke: #808080; stroke-linecap: round"/>
   </g>
   <g id="patch_28">
    <path d="M 203.967806 274.218843 
Q 249.084142 274.218843 293.082443 274.218843 
" clip-path="url(#p6ea00c9720)" style="fill: none; stroke: #808080; stroke-linecap: round"/>
    <path d="M 289.082443 272.218843 
L 293.082443 274.218843 
L 289.082443 276.218843 
z
" clip-path="url(#p6ea00c9720)" style="fill: #808080; stroke: #808080; stroke-linecap: round"/>
   </g>
   <g id="patch_29">
    <path d="M 203.911513 273.878176 
Q 249.086332 257.556951 293.209639 241.615627 
" clip-path="url(#p6ea00c9720)" style="fill: none; stroke: #808080; stroke-linecap: round"/>
    <path d="M 288.768052 241.093801 
L 293.209639 241.615627 
L 290.127226 244.855801 
z
" clip-path="url(#p6ea00c9720)" style="fill: #808080; stroke: #808080; stroke-linecap: round"/>
   </g>
   <g id="patch_30">
    <path d="M 203.776408 273.635133 
Q 249.082255 240.898005 293.48189 208.815688 
" clip-path="url(#p6ea00c9720)" style="fill: none; stroke: #808080; stroke-linecap: round"/>
    <path d="M 289.068361 209.537331 
L 293.48189 208.815688 
L 291.411087 212.779497 
z
" clip-path="url(#p6ea00c9720)" style="fill: #808080; stroke: #808080; stroke-linecap: round"/>
   </g>
   <g id="patch_31">
    <path d="M 296.182323 274.396295 
Q 341.315364 282.54936 385.348179 290.503675 
" clip-path="url(#p6ea00c9720)" style="fill: none; stroke: #808080; stroke-linecap: round"/>
    <path d="M 381.767425 287.824459 
L 385.348179 290.503675 
L 381.056353 291.760749 
z
" clip-path="url(#p6ea00c9720)" style="fill: #808080; stroke: #808080; stroke-linecap: round"/>
   </g>
   <g id="patch_32">
    <path d="M 295.822044 273.432258 
Q 341.3178 215.902141 386.120048 159.248976 
" clip-path="url(#p6ea00c9720)" style="fill: none; stroke: #808080; stroke-linecap: round"/>
    <path d="M 382.070136 161.145872 
L 386.120048 159.248976 
L 385.207617 163.627043 
z
" clip-path="url(#p6ea00c9720)" style="fill: #808080; stroke: #808080; stroke-linecap: round"/>
   </g>
   <g id="patch_33">
    <path d="M 203.776408 240.312819 
Q 249.082255 207.575691 293.48189 175.493374 
" clip-path="url(#p6ea00c9720)" style="fill: none; stroke: #808080; stroke-linecap: round"/>
    <path d="M 289.068361 176.215017 
L 293.48189 175.493374 
L 291.411087 179.457183 
z
" clip-path="url(#p6ea00c9720)" style="fill: #808080; stroke: #808080; stroke-linecap: round"/>
   </g>
   <g id="patch_34">
    <path d="M 203.646933 240.161298 
Q 249.083998 190.913382 293.762926 142.487189 
" clip-path="url(#p6ea00c9720)" style="fill: none; stroke: #808080; stroke-linecap: round"/>
    <path d="M 289.580591 144.070877 
L 293.762926 142.487189 
L 292.520475 146.783271 
z
" clip-path="url(#p6ea00c9720)" style="fill: #808080; stroke: #808080; stroke-linecap: round"/>
   </g>
   <g id="patch_35">
    <path d="M 203.539975 240.070793 
Q 249.086067 174.249343 293.995977 109.34728 
" clip-path="url(#p6ea00c9720)" style="fill: none; stroke: #808080; stroke-linecap: round"/>
    <path d="M 290.075252 111.498539 
L 293.995977 109.34728 
L 293.36455 113.774615 
z
" clip-path="url(#p6ea00c9720)" style="fill: #808080; stroke: #808080; stroke-linecap: round"/>
   </g>
   <g id="patch_36">
    <path d="M 295.511022 108.562411 
Q 341.316227 249.228718 386.775257 388.831933 
" clip-path="url(#p6ea00c9720)" style="fill: none; stroke: #808080; stroke-linecap: round"/>
    <path d="M 387.43846 384.409246 
L 386.775257 388.831933 
L 383.635029 385.647758 
z
" clip-path="url(#p6ea00c9720)" style="fill: #808080; stroke: #808080; stroke-linecap: round"/>
   </g>
   <g id="patch_37">
    <path d="M 295.822044 108.393858 
Q 341.3178 165.923975 386.120048 222.577139 
" clip-path="url(#p6ea00c9720)" style="fill: none; stroke: #808080; stroke-linecap: round"/>
    <path d="M 385.207617 218.199073 
L 386.120048 222.577139 
L 382.070136 220.680244 
z
" clip-path="url(#p6ea00c9720)" style="fill: #808080; stroke: #808080; stroke-linecap: round"/>
   </g>
   <g id="patch_38">
    <path d="M 112.124827 291.63201 
Q 157.107296 316.009606 201.106798 339.854497 
" clip-path="url(#p6ea00c9720)" style="fill: none; stroke: #808080; stroke-linecap: round"/>
    <path d="M 198.542958 336.190248 
L 201.106798 339.854497 
L 196.637095 339.70702 
z
" clip-path="url(#p6ea00c9720)" style="fill: #808080; stroke: #808080; stroke-linecap: round"/>
   </g>
   <g id="patch_39">
    <path d="M 112.293708 291.161177 
Q 157.139977 299.262439 200.88602 307.16495 
" clip-path="url(#p6ea00c9720)" style="fill: none; stroke: #808080; stroke-linecap: round"/>
    <path d="M 197.305267 304.485733 
L 200.88602 307.16495 
L 196.594195 308.422023 
z
" clip-path="url(#p6ea00c9720)" style="fill: #808080; stroke: #808080; stroke-linecap: round"/>
   </g>
   <g id="patch_40">
    <path d="M 112.293708 290.598823 
Q 157.139977 282.497561 200.88602 274.59505 
" clip-path="url(#p6ea00c9720)" style="fill: none; stroke: #808080; stroke-linecap: round"/>
    <path d="M 196.594195 273.337977 
L 200.88602 274.59505 
L 197.305267 277.274267 
z
" clip-path="url(#p6ea00c9720)" style="fill: #808080; stroke: #808080; stroke-linecap: round"/>
   </g>
   <g id="patch_41">
    <path d="M 112.124827 290.12799 
Q 157.107296 265.750394 201.106798 241.905503 
" clip-path="url(#p6ea00c9720)" style="fill: none; stroke: #808080; stroke-linecap: round"/>
    <path d="M 196.637095 242.05298 
L 201.106798 241.905503 
L 198.542958 245.569752 
z
" clip-path="url(#p6ea00c9720)" style="fill: #808080; stroke: #808080; stroke-linecap: round"/>
   </g>
   <g id="patch_42">
    <path d="M 479.66281 346.099835 
C 481.157591 346.099835 482.591351 345.548098 483.648321 344.566139 
C 484.705291 343.58418 485.299174 342.252171 485.299174 340.863471 
C 485.299174 339.474771 484.705291 338.142762 483.648321 337.160803 
C 482.591351 336.178844 481.157591 335.627107 479.66281 335.627107 
C 478.168029 335.627107 476.734269 336.178844 475.677299 337.160803 
C 474.620329 338.142762 474.026446 339.474771 474.026446 340.863471 
C 474.026446 342.252171 474.620329 343.58418 475.677299 344.566139 
C 476.734269 345.548098 478.168029 346.099835 479.66281 346.099835 
L 479.66281 346.099835 
z
" clip-path="url(#p6ea00c9720)" style="fill: none; stroke: #ff0000; stroke-linejoin: miter"/>
   </g>
   <g id="patch_43">
    <path d="M 110.73719 296.116364 
C 112.231971 296.116364 113.665731 295.564627 114.722701 294.582668 
C 115.779671 293.600709 116.373554 292.2687 116.373554 290.88 
C 116.373554 289.4913 115.779671 288.159291 114.722701 287.177332 
C 113.665731 286.195373 112.231971 285.643636 110.73719 285.643636 
C 109.242409 285.643636 107.808649 286.195373 106.751679 287.177332 
C 105.694709 288.159291 105.100826 289.4913 105.100826 290.88 
C 105.100826 292.2687 105.694709 293.600709 106.751679 294.582668 
C 107.808649 295.564627 109.242409 296.116364 110.73719 296.116364 
L 110.73719 296.116364 
z
" clip-path="url(#p6ea00c9720)" style="fill: none; stroke: #0000ff; stroke-linejoin: miter"/>
   </g>
   <g id="PathCollection_1">
    <path d="M 202.968595 341.863471 
C 203.233798 341.863471 203.488175 341.758105 203.675702 341.570578 
C 203.863229 341.383051 203.968595 341.128674 203.968595 340.863471 
C 203.968595 340.598268 203.863229 340.343891 203.675702 340.156364 
C 203.488175 339.968837 203.233798 339.863471 202.968595 339.863471 
C 202.703392 339.863471 202.449015 339.968837 202.261488 340.156364 
C 202.073961 340.343891 201.968595 340.598268 201.968595 340.863471 
C 201.968595 341.128674 202.073961 341.383051 202.261488 341.570578 
C 202.449015 341.758105 202.703392 341.863471 202.968595 341.863471 
z
" clip-path="url(#p6ea00c9720)" style="stroke: #000000"/>
    <path d="M 295.2 475.152727 
C 295.465203 475.152727 295.71958 475.047361 295.907107 474.859834 
C 296.094634 474.672307 296.2 474.41793 296.2 474.152727 
C 296.2 473.887524 296.094634 473.633147 295.907107 473.44562 
C 295.71958 473.258094 295.465203 473.152727 295.2 473.152727 
C 294.934797 473.152727 294.68042 473.258094 294.492893 473.44562 
C 294.305366 473.633147 294.2 473.887524 294.2 474.152727 
C 294.2 474.41793 294.305366 474.672307 294.492893 474.859834 
C 294.68042 475.047361 294.934797 475.152727 295.2 475.152727 
z
" clip-path="url(#p6ea00c9720)" style="stroke: #000000"/>
    <path d="M 295.2 441.830413 
C 295.465203 441.830413 295.71958 441.725047 295.907107 441.53752 
C 296.094634 441.349993 296.2 441.095616 296.2 440.830413 
C 296.2 440.56521 296.094634 440.310833 295.907107 440.123306 
C 295.71958 439.93578 295.465203 439.830413 295.2 439.830413 
C 294.934797 439.830413 294.68042 439.93578 294.492893 440.123306 
C 294.305366 440.310833 294.2 440.56521 294.2 440.830413 
C 294.2 441.095616 294.305366 441.349993 294.492893 441.53752 
C 294.68042 441.725047 294.934797 441.830413 295.2 441.830413 
z
" clip-path="url(#p6ea00c9720)" style="stroke: #000000"/>
    <path d="M 295.2 408.508099 
C 295.465203 408.508099 295.71958 408.402733 295.907107 408.215206 
C 296.094634 408.027679 296.2 407.773302 296.2 407.508099 
C 296.2 407.242896 296.094634 406.988519 295.907107 406.800992 
C 295.71958 406.613465 295.465203 406.508099 295.2 406.508099 
C 294.934797 406.508099 294.68042 406.613465 294.492893 406.800992 
C 294.305366 406.988519 294.2 407.242896 294.2 407.508099 
C 294.2 407.773302 294.305366 408.027679 294.492893 408.215206 
C 294.68042 408.402733 294.934797 408.508099 295.2 408.508099 
z
" clip-path="url(#p6ea00c9720)" style="stroke: #000000"/>
    <path d="M 387.431405 191.913058 
C 387.696608 191.913058 387.950985 191.807692 388.138512 191.620165 
C 388.326039 191.432638 388.431405 191.178261 388.431405 190.913058 
C 388.431405 190.647855 388.326039 190.393478 388.138512 190.205951 
C 387.950985 190.018424 387.696608 189.913058 387.431405 189.913058 
C 387.166202 189.913058 386.911825 190.018424 386.724298 190.205951 
C 386.536771 190.393478 386.431405 190.647855 386.431405 190.913058 
C 386.431405 191.178261 386.536771 191.432638 386.724298 191.620165 
C 386.911825 191.807692 387.166202 191.913058 387.431405 191.913058 
z
" clip-path="url(#p6ea00c9720)" style="stroke: #000000"/>
    <path d="M 479.66281 308.541157 
C 479.928013 308.541157 480.18239 308.435791 480.369917 308.248264 
C 480.557444 308.060737 480.66281 307.80636 480.66281 307.541157 
C 480.66281 307.275954 480.557444 307.021577 480.369917 306.83405 
C 480.18239 306.646523 479.928013 306.541157 479.66281 306.541157 
C 479.397607 306.541157 479.14323 306.646523 478.955703 306.83405 
C 478.768176 307.021577 478.66281 307.275954 478.66281 307.541157 
C 478.66281 307.80636 478.768176 308.060737 478.955703 308.248264 
C 479.14323 308.435791 479.397607 308.541157 479.66281 308.541157 
z
" clip-path="url(#p6ea00c9720)" style="stroke: #000000"/>
    <path d="M 387.431405 258.557686 
C 387.696608 258.557686 387.950985 258.45232 388.138512 258.264793 
C 388.326039 258.077266 388.431405 257.822889 388.431405 257.557686 
C 388.431405 257.292483 388.326039 257.038106 388.138512 256.850579 
C 387.950985 256.663052 387.696608 256.557686 387.431405 256.557686 
C 387.166202 256.557686 386.911825 256.663052 386.724298 256.850579 
C 386.536771 257.038106 386.431405 257.292483 386.431405 257.557686 
C 386.431405 257.822889 386.536771 258.077266 386.724298 258.264793 
C 386.911825 258.45232 387.166202 258.557686 387.431405 258.557686 
z
" clip-path="url(#p6ea00c9720)" style="stroke: #000000"/>
    <path d="M 479.66281 275.218843 
C 479.928013 275.218843 480.18239 275.113477 480.369917 274.92595 
C 480.557444 274.738423 480.66281 274.484046 480.66281 274.218843 
C 480.66281 273.95364 480.557444 273.699263 480.369917 273.511736 
C 480.18239 273.324209 479.928013 273.218843 479.66281 273.218843 
C 479.397607 273.218843 479.14323 273.324209 478.955703 273.511736 
C 478.768176 273.699263 478.66281 273.95364 478.66281 274.218843 
C 478.66281 274.484046 478.768176 274.738423 478.955703 274.92595 
C 479.14323 275.113477 479.397607 275.218843 479.66281 275.218843 
z
" clip-path="url(#p6ea00c9720)" style="stroke: #000000"/>
    <path d="M 387.431405 158.590744 
C 387.696608 158.590744 387.950985 158.485377 388.138512 158.297851 
C 388.326039 158.110324 388.431405 157.855947 388.431405 157.590744 
C 388.431405 157.325541 388.326039 157.071164 388.138512 156.883637 
C 387.950985 156.69611 387.696608 156.590744 387.431405 156.590744 
C 387.166202 156.590744 386.911825 156.69611 386.724298 156.883637 
C 386.536771 157.071164 386.431405 157.325541 386.431405 157.590744 
C 386.431405 157.855947 386.536771 158.110324 386.724298 158.297851 
C 386.911825 158.485377 387.166202 158.590744 387.431405 158.590744 
z
" clip-path="url(#p6ea00c9720)" style="stroke: #000000"/>
    <path d="M 479.66281 241.896529 
C 479.928013 241.896529 480.18239 241.791163 480.369917 241.603636 
C 480.557444 241.416109 480.66281 241.161732 480.66281 240.896529 
C 480.66281 240.631326 480.557444 240.376949 480.369917 240.189422 
C 480.18239 240.001895 479.928013 239.896529 479.66281 239.896529 
C 479.397607 239.896529 479.14323 240.001895 478.955703 240.189422 
C 478.768176 240.376949 478.66281 240.631326 478.66281 240.896529 
C 478.66281 241.161732 478.768176 241.416109 478.955703 241.603636 
C 479.14323 241.791163 479.397607 241.896529 479.66281 241.896529 
z
" clip-path="url(#p6ea00c9720)" style="stroke: #000000"/>
    <path d="M 387.431405 291.88 
C 387.696608 291.88 387.950985 291.774634 388.138512 291.587107 
C 388.326039 291.39958 388.431405 291.145203 388.431405 290.88 
C 388.431405 290.614797 388.326039 290.36042 388.138512 290.172893 
C 387.950985 289.985366 387.696608 289.88 387.431405 289.88 
C 387.166202 289.88 386.911825 289.985366 386.724298 290.172893 
C 386.536771 290.36042 386.431405 290.614797 386.431405 290.88 
C 386.431405 291.145203 386.536771 291.39958 386.724298 291.587107 
C 386.911825 291.774634 387.166202 291.88 387.431405 291.88 
z
" clip-path="url(#p6ea00c9720)" style="stroke: #000000"/>
    <path d="M 295.2 208.574215 
C 295.465203 208.574215 295.71958 208.468849 295.907107 208.281322 
C 296.094634 208.093795 296.2 207.839418 296.2 207.574215 
C 296.2 207.309012 296.094634 207.054635 295.907107 206.867108 
C 295.71958 206.679581 295.465203 206.574215 295.2 206.574215 
C 294.934797 206.574215 294.68042 206.679581 294.492893 206.867108 
C 294.305366 207.054635 294.2 207.309012 294.2 207.574215 
C 294.2 207.839418 294.305366 208.093795 294.492893 208.281322 
C 294.68042 208.468849 294.934797 208.574215 295.2 208.574215 
z
" clip-path="url(#p6ea00c9720)" style="stroke: #000000"/>
    <path d="M 387.431405 325.202314 
C 387.696608 325.202314 387.950985 325.096948 388.138512 324.909421 
C 388.326039 324.721894 388.431405 324.467517 388.431405 324.202314 
C 388.431405 323.937111 388.326039 323.682734 388.138512 323.495207 
C 387.950985 323.30768 387.696608 323.202314 387.431405 323.202314 
C 387.166202 323.202314 386.911825 323.30768 386.724298 323.495207 
C 386.536771 323.682734 386.431405 323.937111 386.431405 324.202314 
C 386.431405 324.467517 386.536771 324.721894 386.724298 324.909421 
C 386.911825 325.096948 387.166202 325.202314 387.431405 325.202314 
z
" clip-path="url(#p6ea00c9720)" style="stroke: #000000"/>
    <path d="M 387.431405 358.524628 
C 387.696608 358.524628 387.950985 358.419262 388.138512 358.231735 
C 388.326039 358.044208 388.431405 357.789831 388.431405 357.524628 
C 388.431405 357.259425 388.326039 357.005048 388.138512 356.817521 
C 387.950985 356.629994 387.696608 356.524628 387.431405 356.524628 
C 387.166202 356.524628 386.911825 356.629994 386.724298 356.817521 
C 386.536771 357.005048 386.431405 357.259425 386.431405 357.524628 
C 386.431405 357.789831 386.536771 358.044208 386.724298 358.231735 
C 386.911825 358.419262 387.166202 358.524628 387.431405 358.524628 
z
" clip-path="url(#p6ea00c9720)" style="stroke: #000000"/>
    <path d="M 387.431405 225.235372 
C 387.696608 225.235372 387.950985 225.130006 388.138512 224.942479 
C 388.326039 224.754952 388.431405 224.500575 388.431405 224.235372 
C 388.431405 223.970169 388.326039 223.715792 388.138512 223.528265 
C 387.950985 223.340738 387.696608 223.235372 387.431405 223.235372 
C 387.166202 223.235372 386.911825 223.340738 386.724298 223.528265 
C 386.536771 223.715792 386.431405 223.970169 386.431405 224.235372 
C 386.431405 224.500575 386.536771 224.754952 386.724298 224.942479 
C 386.911825 225.130006 387.166202 225.235372 387.431405 225.235372 
z
" clip-path="url(#p6ea00c9720)" style="stroke: #000000"/>
    <path d="M 295.2 175.251901 
C 295.465203 175.251901 295.71958 175.146535 295.907107 174.959008 
C 296.094634 174.771481 296.2 174.517104 296.2 174.251901 
C 296.2 173.986698 296.094634 173.732321 295.907107 173.544794 
C 295.71958 173.357267 295.465203 173.251901 295.2 173.251901 
C 294.934797 173.251901 294.68042 173.357267 294.492893 173.544794 
C 294.305366 173.732321 294.2 173.986698 294.2 174.251901 
C 294.2 174.517104 294.305366 174.771481 294.492893 174.959008 
C 294.68042 175.146535 294.934797 175.251901 295.2 175.251901 
z
" clip-path="url(#p6ea00c9720)" style="stroke: #000000"/>
    <path d="M 202.968595 308.541157 
C 203.233798 308.541157 203.488175 308.435791 203.675702 308.248264 
C 203.863229 308.060737 203.968595 307.80636 203.968595 307.541157 
C 203.968595 307.275954 203.863229 307.021577 203.675702 306.83405 
C 203.488175 306.646523 203.233798 306.541157 202.968595 306.541157 
C 202.703392 306.541157 202.449015 306.646523 202.261488 306.83405 
C 202.073961 307.021577 201.968595 307.275954 201.968595 307.541157 
C 201.968595 307.80636 202.073961 308.060737 202.261488 308.248264 
C 202.449015 308.435791 202.703392 308.541157 202.968595 308.541157 
z
" clip-path="url(#p6ea00c9720)" style="stroke: #000000"/>
    <path d="M 295.2 375.185785 
C 295.465203 375.185785 295.71958 375.080419 295.907107 374.892892 
C 296.094634 374.705365 296.2 374.450988 296.2 374.185785 
C 296.2 373.920582 296.094634 373.666205 295.907107 373.478678 
C 295.71958 373.291151 295.465203 373.185785 295.2 373.185785 
C 294.934797 373.185785 294.68042 373.291151 294.492893 373.478678 
C 294.305366 373.666205 294.2 373.920582 294.2 374.185785 
C 294.2 374.450988 294.305366 374.705365 294.492893 374.892892 
C 294.68042 375.080419 294.934797 375.185785 295.2 375.185785 
z
" clip-path="url(#p6ea00c9720)" style="stroke: #000000"/>
    <path d="M 295.2 341.863471 
C 295.465203 341.863471 295.71958 341.758105 295.907107 341.570578 
C 296.094634 341.383051 296.2 341.128674 296.2 340.863471 
C 296.2 340.598268 296.094634 340.343891 295.907107 340.156364 
C 295.71958 339.968837 295.465203 339.863471 295.2 339.863471 
C 294.934797 339.863471 294.68042 339.968837 294.492893 340.156364 
C 294.305366 340.343891 294.2 340.598268 294.2 340.863471 
C 294.2 341.128674 294.305366 341.383051 294.492893 341.570578 
C 294.68042 341.758105 294.934797 341.863471 295.2 341.863471 
z
" clip-path="url(#p6ea00c9720)" style="stroke: #000000"/>
    <path d="M 295.2 308.541157 
C 295.465203 308.541157 295.71958 308.435791 295.907107 308.248264 
C 296.094634 308.060737 296.2 307.80636 296.2 307.541157 
C 296.2 307.275954 296.094634 307.021577 295.907107 306.83405 
C 295.71958 306.646523 295.465203 306.541157 295.2 306.541157 
C 294.934797 306.541157 294.68042 306.646523 294.492893 306.83405 
C 294.305366 307.021577 294.2 307.275954 294.2 307.541157 
C 294.2 307.80636 294.305366 308.060737 294.492893 308.248264 
C 294.68042 308.435791 294.934797 308.541157 295.2 308.541157 
z
" clip-path="url(#p6ea00c9720)" style="stroke: #000000"/>
    <path d="M 202.968595 275.218843 
C 203.233798 275.218843 203.488175 275.113477 203.675702 274.92595 
C 203.863229 274.738423 203.968595 274.484046 203.968595 274.218843 
C 203.968595 273.95364 203.863229 273.699263 203.675702 273.511736 
C 203.488175 273.324209 203.233798 273.218843 202.968595 273.218843 
C 202.703392 273.218843 202.449015 273.324209 202.261488 273.511736 
C 202.073961 273.699263 201.968595 273.95364 201.968595 274.218843 
C 201.968595 274.484046 202.073961 274.738423 202.261488 274.92595 
C 202.449015 275.113477 202.703392 275.218843 202.968595 275.218843 
z
" clip-path="url(#p6ea00c9720)" style="stroke: #000000"/>
    <path d="M 295.2 275.218843 
C 295.465203 275.218843 295.71958 275.113477 295.907107 274.92595 
C 296.094634 274.738423 296.2 274.484046 296.2 274.218843 
C 296.2 273.95364 296.094634 273.699263 295.907107 273.511736 
C 295.71958 273.324209 295.465203 273.218843 295.2 273.218843 
C 294.934797 273.218843 294.68042 273.324209 294.492893 273.511736 
C 294.305366 273.699263 294.2 273.95364 294.2 274.218843 
C 294.2 274.484046 294.305366 274.738423 294.492893 274.92595 
C 294.68042 275.113477 294.934797 275.218843 295.2 275.218843 
z
" clip-path="url(#p6ea00c9720)" style="stroke: #000000"/>
    <path d="M 295.2 241.896529 
C 295.465203 241.896529 295.71958 241.791163 295.907107 241.603636 
C 296.094634 241.416109 296.2 241.161732 296.2 240.896529 
C 296.2 240.631326 296.094634 240.376949 295.907107 240.189422 
C 295.71958 240.001895 295.465203 239.896529 295.2 239.896529 
C 294.934797 239.896529 294.68042 240.001895 294.492893 240.189422 
C 294.305366 240.376949 294.2 240.631326 294.2 240.896529 
C 294.2 241.161732 294.305366 241.416109 294.492893 241.603636 
C 294.68042 241.791163 294.934797 241.896529 295.2 241.896529 
z
" clip-path="url(#p6ea00c9720)" style="stroke: #000000"/>
    <path d="M 479.66281 342.44461 
C 480.082133 342.44461 480.484338 342.278011 480.780844 341.981505 
C 481.07735 341.684999 481.243949 341.282794 481.243949 340.863471 
C 481.243949 340.444148 481.07735 340.041943 480.780844 339.745437 
C 480.484338 339.448931 480.082133 339.282332 479.66281 339.282332 
C 479.243487 339.282332 478.841282 339.448931 478.544776 339.745437 
C 478.24827 340.041943 478.081671 340.444148 478.081671 340.863471 
C 478.081671 341.282794 478.24827 341.684999 478.544776 341.981505 
C 478.841282 342.278011 479.243487 342.44461 479.66281 342.44461 
z
" clip-path="url(#p6ea00c9720)" style="fill: #ff0000; stroke: #ff0000"/>
    <path d="M 202.968595 241.896529 
C 203.233798 241.896529 203.488175 241.791163 203.675702 241.603636 
C 203.863229 241.416109 203.968595 241.161732 203.968595 240.896529 
C 203.968595 240.631326 203.863229 240.376949 203.675702 240.189422 
C 203.488175 240.001895 203.233798 239.896529 202.968595 239.896529 
C 202.703392 239.896529 202.449015 240.001895 202.261488 240.189422 
C 202.073961 240.376949 201.968595 240.631326 201.968595 240.896529 
C 201.968595 241.161732 202.073961 241.416109 202.261488 241.603636 
C 202.449015 241.791163 202.703392 241.896529 202.968595 241.896529 
z
" clip-path="url(#p6ea00c9720)" style="stroke: #000000"/>
    <path d="M 295.2 141.929587 
C 295.465203 141.929587 295.71958 141.82422 295.907107 141.636694 
C 296.094634 141.449167 296.2 141.19479 296.2 140.929587 
C 296.2 140.664384 296.094634 140.410007 295.907107 140.22248 
C 295.71958 140.034953 295.465203 139.929587 295.2 139.929587 
C 294.934797 139.929587 294.68042 140.034953 294.492893 140.22248 
C 294.305366 140.410007 294.2 140.664384 294.2 140.929587 
C 294.2 141.19479 294.305366 141.449167 294.492893 141.636694 
C 294.68042 141.82422 294.934797 141.929587 295.2 141.929587 
z
" clip-path="url(#p6ea00c9720)" style="stroke: #000000"/>
    <path d="M 295.2 108.607273 
C 295.465203 108.607273 295.71958 108.501906 295.907107 108.31438 
C 296.094634 108.126853 296.2 107.872476 296.2 107.607273 
C 296.2 107.34207 296.094634 107.087693 295.907107 106.900166 
C 295.71958 106.712639 295.465203 106.607273 295.2 106.607273 
C 294.934797 106.607273 294.68042 106.712639 294.492893 106.900166 
C 294.305366 107.087693 294.2 107.34207 294.2 107.607273 
C 294.2 107.872476 294.305366 108.126853 294.492893 108.31438 
C 294.68042 108.501906 294.934797 108.607273 295.2 108.607273 
z
" clip-path="url(#p6ea00c9720)" style="stroke: #000000"/>
    <path d="M 387.431405 391.846942 
C 387.696608 391.846942 387.950985 391.741576 388.138512 391.554049 
C 388.326039 391.366522 388.431405 391.112145 388.431405 390.846942 
C 388.431405 390.581739 388.326039 390.327362 388.138512 390.139835 
C 387.950985 389.952308 387.696608 389.846942 387.431405 389.846942 
C 387.166202 389.846942 386.911825 389.952308 386.724298 390.139835 
C 386.536771 390.327362 386.431405 390.581739 386.431405 390.846942 
C 386.431405 391.112145 386.536771 391.366522 386.724298 391.554049 
C 386.911825 391.741576 387.166202 391.846942 387.431405 391.846942 
z
" clip-path="url(#p6ea00c9720)" style="stroke: #000000"/>
    <path d="M 110.73719 292.461139 
C 111.156513 292.461139 111.558718 292.29454 111.855224 291.998034 
C 112.15173 291.701528 112.318329 291.299323 112.318329 290.88 
C 112.318329 290.460677 112.15173 290.058472 111.855224 289.761966 
C 111.558718 289.46546 111.156513 289.298861 110.73719 289.298861 
C 110.317867 289.298861 109.915662 289.46546 109.619156 289.761966 
C 109.32265 290.058472 109.156051 290.460677 109.156051 290.88 
C 109.156051 291.299323 109.32265 291.701528 109.619156 291.998034 
C 109.915662 292.29454 110.317867 292.461139 110.73719 292.461139 
z
" clip-path="url(#p6ea00c9720)" style="fill: #0000ff; stroke: #0000ff"/>
    <path d="M 387.431405 425.169256 
C 387.696608 425.169256 387.950985 425.06389 388.138512 424.876363 
C 388.326039 424.688836 388.431405 424.434459 388.431405 424.169256 
C 388.431405 423.904053 388.326039 423.649676 388.138512 423.462149 
C 387.950985 423.274623 387.696608 423.169256 387.431405 423.169256 
C 387.166202 423.169256 386.911825 423.274623 386.724298 423.462149 
C 386.536771 423.649676 386.431405 423.904053 386.431405 424.169256 
C 386.431405 424.434459 386.536771 424.688836 386.724298 424.876363 
C 386.911825 425.06389 387.166202 425.169256 387.431405 425.169256 
z
" clip-path="url(#p6ea00c9720)" style="stroke: #000000"/>
   </g>
  </g>
 </g>
 <defs>
  <clipPath id="p6ea00c9720">
   <rect x="72" y="69.12" width="446.4" height="443.52"/>
  </clipPath>
 </defs>
</svg>
